<svg width="500" height="500" viewBox="0 0 500 500" fill="none" xmlns="http://www.w3.org/2000/svg">
<path d="M276.867 154.981C276.916 179.021 276.965 203.061 276.974 227.682C276.99 228.487 277.077 228.698 277.194 228.898C310.83 228.902 344.466 228.906 378.758 229.142C379.678 229.564 379.942 229.752 380.206 229.94C380.401 232.415 380.595 234.891 380.831 237.893C383.701 238.038 386.587 238.184 389.727 238.342C389.877 241.45 390.01 244.23 390.167 247.495C393.005 247.619 395.762 247.74 399.034 247.883C399.034 250.812 399.034 253.555 399.034 256.685C402.419 256.892 405.315 257.069 408.479 257.262C408.479 263.379 408.479 269.29 408.479 275.601C405.521 275.753 402.755 275.896 399.464 276.067C399.464 278.887 399.464 281.622 399.464 284.85C396.2 284.85 393.455 284.85 390.332 284.85C390.332 288.21 390.332 291.088 390.332 294.271C393.161 294.461 395.921 294.646 399.086 294.859C399.086 300.836 399.086 306.61 399.086 313.121C405.505 313.121 411.545 313.121 417.807 313.121C417.962 316.629 418.085 319.412 418.231 322.709C430.583 322.709 442.838 322.709 455.442 322.709C455.442 329.115 455.442 335.005 455.442 341.484C449.405 341.484 443.487 341.484 437.195 341.484C437.046 344.798 436.921 347.554 436.774 350.813C433.852 350.813 431.109 350.813 427.852 350.813C427.658 354.016 427.492 356.75 427.301 359.893C418.081 359.893 409.03 359.893 399.361 359.893C399.361 354.05 399.361 348.147 399.361 341.92C396.041 341.696 393.297 341.511 390.016 341.289C390.016 332.05 390.016 322.986 390.016 313.633C386.723 313.412 383.959 313.227 380.87 313.02C380.663 310.103 380.466 307.339 380.242 304.186C377.355 304.06 374.582 303.938 371.407 303.799C371.201 300.796 371.002 297.901 370.792 294.832C367.781 294.644 365.014 294.472 362.066 294.288C361.913 291.204 361.775 288.425 361.622 285.343C358.493 285.157 355.591 284.986 352.369 284.795C352.369 281.884 352.369 279.259 352.369 276.166C349.177 275.967 346.29 275.786 343.169 275.591C343.019 272.539 342.882 269.76 342.728 266.64C327.191 266.64 311.801 266.64 296.18 266.64C296.021 269.661 295.875 272.436 295.7 275.773C286.473 275.773 277.4 275.773 268.05 275.773C267.875 279.066 267.729 281.809 267.559 285.019C261.369 285.019 255.447 285.019 249.119 285.019C249.119 288.261 249.119 291.026 249.119 294.504C242.678 294.504 236.635 294.504 230.359 294.504C230.167 297.951 230.014 300.705 229.844 303.766C226.854 303.901 224.098 304.026 221.074 304.162C220.887 307.185 220.716 309.94 220.525 313.023C217.552 313.203 214.787 313.369 211.544 313.565C211.327 316.546 211.117 319.435 210.866 322.885C204.807 322.885 198.895 322.885 192.796 322.885C192.648 326.077 192.525 328.7 192.379 331.84C189.37 331.993 186.483 332.14 183.314 332.301C183.159 335.345 183.017 338.119 182.854 341.31C180.005 341.477 177.245 341.639 173.974 341.831C173.974 344.703 173.974 347.452 173.974 350.653C170.597 350.861 167.701 351.039 164.295 351.249C164.295 354.162 164.295 356.91 164.295 360.029C161.059 360.219 158.314 360.38 155.152 360.565C155.152 363.53 155.152 366.292 155.152 369.713C151.857 369.713 148.98 369.713 145.85 369.713C145.612 373.101 145.418 375.857 145.205 378.9C142.244 379.035 139.476 379.162 136.25 379.309C136.25 382.257 136.25 385.015 136.25 388.368C126.747 388.368 117.692 388.368 108.158 388.368C108.158 391.694 108.158 394.447 108.158 397.658C104.823 397.861 101.932 398.038 98.8391 398.227C98.6386 401.217 98.4529 403.987 98.2526 406.973C95.2321 407.145 92.4591 407.303 89.2967 407.483C89.1579 410.461 89.0289 413.229 88.875 416.533C86.0718 416.533 83.3372 416.533 80.0519 416.533C80.0519 419.789 80.0519 422.522 80.0519 425.776C76.6571 425.974 73.7689 426.142 70.4659 426.334C70.3237 429.27 70.1896 432.037 70.0283 435.368C67.176 435.534 64.4349 435.694 61.1164 435.887C61.1164 441.82 61.1164 447.727 61.1164 453.937C57.803 453.937 55.0609 453.937 51.9329 453.937C51.9329 435.471 51.9329 417.073 51.9329 398.184C54.7528 398.055 57.641 397.923 60.9245 397.772C60.9245 394.704 60.9245 391.929 60.9245 388.598C67.2815 388.598 73.2164 388.598 79.4993 388.598C79.7019 385.297 79.8716 382.531 80.0717 379.271C82.9326 379.271 85.6793 379.271 88.9324 379.271C88.9324 376.042 88.9324 373.304 88.9324 370.05C92.1692 370.05 94.9133 370.05 98.3664 370.05C98.3664 363.508 98.3664 357.459 98.3664 351.23C101.842 351.048 104.611 350.903 107.679 350.742C107.83 347.74 107.97 344.967 108.126 341.876C111.011 341.696 113.78 341.522 116.949 341.324C117.082 338.454 117.212 335.679 117.371 332.257C123.505 332.257 129.557 332.257 136.07 332.257C136.07 328.869 136.07 326.126 136.07 323.128C139.294 322.949 142.053 322.796 145.199 322.622C145.385 319.664 145.557 316.906 145.758 313.694C148.747 313.458 151.624 313.231 154.837 312.977C154.837 306.962 154.837 301.171 154.837 294.856C157.894 294.678 160.632 294.519 163.96 294.325C164.103 291.412 164.245 288.526 164.403 285.304C167.469 285.165 170.242 285.039 173.583 284.887C173.583 278.916 173.583 273.009 173.583 266.561C176.87 266.396 179.622 266.258 182.991 266.09C182.991 253.821 182.991 241.594 182.991 229.155C186.354 228.954 189.117 228.789 192.247 228.603C192.471 225.506 192.681 222.601 192.904 219.532C195.986 219.341 198.745 219.169 201.966 218.969C201.966 200.3 201.966 181.883 201.966 162.979C205.182 162.979 207.924 162.979 211.176 162.979C211.176 156.585 211.176 150.664 211.176 144.357C214.437 144.209 217.204 144.084 220.554 143.932C220.554 137.965 220.554 132.068 220.554 125.675C223.846 125.461 226.592 125.282 229.832 125.071C229.832 122.324 229.832 119.575 229.832 116.234C233.175 116.068 236.068 115.924 239.277 115.764C239.496 112.806 239.7 110.05 239.939 106.819C245.855 106.819 251.622 106.819 257.975 106.819C257.975 100.46 257.975 94.5678 257.975 88.1717C261.41 87.9827 264.306 87.8235 267.565 87.6442C267.713 84.6821 267.852 81.9149 268.012 78.7378C283.517 78.7378 298.876 78.7378 314.588 78.7378C314.745 81.6533 314.894 84.4239 315.07 87.6869C317.897 87.6869 320.646 87.6869 323.889 87.6869C323.889 90.9129 323.889 93.6547 323.889 97.186C327.132 97.186 329.894 97.186 333.087 97.724C333.499 99.0943 333.351 99.9472 333.48 100.756C334.265 105.666 332.113 107.204 327.372 106.758C323.324 106.378 319.212 106.679 314.987 106.679C314.819 110.199 314.689 112.941 314.536 116.17C308.027 116.17 302.11 116.17 296.104 116.17C295.944 119.441 295.809 122.191 295.673 124.956C286.185 124.956 277.258 124.956 268.065 124.956C267.884 121.932 267.72 119.184 267.549 116.324C264.335 116.324 261.468 116.324 258.653 116.324C258.653 128.915 258.653 141.113 258.653 153.959C264.746 153.959 270.381 153.959 276.152 154.134C276.47 154.543 276.663 154.767 276.867 154.981Z" fill="#DDDDDE"/>
<path d="M276.017 153.959C270.381 153.959 264.746 153.959 258.652 153.959C258.652 141.113 258.652 128.915 258.652 116.323C261.467 116.323 264.335 116.323 267.549 116.323C267.72 119.184 267.884 121.932 268.065 124.956C277.258 124.956 286.185 124.956 295.673 124.956C295.809 122.191 295.944 119.441 296.104 116.17C302.11 116.17 308.027 116.17 314.536 116.17C314.689 112.94 314.819 110.199 314.987 106.679C319.212 106.679 323.324 106.377 327.372 106.758C332.113 107.203 334.265 105.666 333.48 100.755C333.351 99.9469 333.499 99.0941 333.574 97.8202C336.447 97.2362 339.264 97.0938 342.652 96.9227C342.813 94.1255 342.969 91.3923 343.161 88.0502C349.211 88.0502 355.118 88.0502 361.505 88.0502C361.69 84.7184 361.842 81.969 362.035 78.5055C368.024 78.5055 373.904 78.5055 380.108 78.5055C380.392 75.074 380.62 72.3269 380.872 69.2944C383.786 69.2944 386.528 69.2944 389.612 69.2944C389.612 75.3499 389.612 81.2489 389.612 87.7631C383.566 87.7631 377.662 87.7631 371.395 87.7631C371.198 91.0835 371.036 93.8244 370.837 97.1841C365.838 97.1841 361.052 97.3194 356.278 97.1357C353.188 97.0168 352.148 98.2458 352.247 101.233C352.405 106.019 352.289 110.814 352.289 116.043C345.866 116.043 340.082 116.043 333.925 116.043C333.677 119.195 333.461 121.939 333.207 125.181C327.3 125.181 321.533 125.181 315.093 125.181C315.093 131.534 315.093 137.416 315.093 143.91C308.548 143.91 302.656 143.91 296.245 143.91C296.053 147.239 295.895 149.984 295.678 153.752C289.725 153.752 283.815 153.752 277.203 153.79C276.34 153.872 276.178 153.915 276.017 153.959Z" fill="#E75829"/>
</svg>
